<?xml version="1.0" standalone="no"?>
<!DOCTYPE svg PUBLIC "-//W3C//DTD SVG 20010904//EN"
 "http://www.w3.org/TR/2001/REC-SVG-20010904/DTD/svg10.dtd">
<svg version="1.0" xmlns="http://www.w3.org/2000/svg"
 width="500.000000pt" height="500.000000pt" viewBox="0 0 500.000000 500.000000"
 preserveAspectRatio="xMidYMid meet">

<g transform="translate(0.000000,500.000000) scale(0.100000,-0.100000)"
fill="#000000" stroke="none">
<path d="M1962 2408 c-68 -189 -137 -378 -152 -421 l-29 -78 106 3 106 3 25
73 24 72 161 -2 160 -3 25 -72 24 -73 40 0 c37 0 40 2 34 23 -3 12 -70 200
-150 417 l-144 395 -54 3 -53 3 -123 -343z m245 -186 c-55 -1 -102 -1 -104 2
-5 4 82 278 95 301 3 5 29 -61 57 -145 l52 -155 -100 -3z"/>
<path d="M2253 2662 c17 -48 86 -237 152 -420 l120 -332 78 0 77 0 0 186 c0
110 4 183 9 179 5 -3 71 -86 146 -185 l137 -180 119 0 c65 0 119 2 119 4 0 2
-74 97 -165 212 -91 115 -165 211 -165 214 0 4 89 117 288 368 l34 42 -119 0
-118 0 -135 -180 c-74 -99 -138 -180 -142 -180 -5 0 -8 81 -8 180 l0 180 -100
0 -100 0 -1 -217 0 -218 -78 215 -78 215 -51 3 -51 3 32 -89z"/>
<path d="M2112 1746 c1 -10 8 -17 13 -17 15 1 12 24 -3 29 -9 3 -13 -2 -10
-12z"/>
<path d="M2165 1750 c-4 -6 -3 -16 3 -22 6 -6 12 -6 17 2 4 6 3 16 -3 22 -6 6
-12 6 -17 -2z"/>
<path d="M2615 1750 c-4 -6 -3 -16 3 -22 6 -6 12 -6 17 2 4 6 3 16 -3 22 -6 6
-12 6 -17 -2z"/>
<path d="M2665 1750 c-8 -13 4 -32 16 -25 12 8 12 35 0 35 -6 0 -13 -4 -16
-10z"/>
<path d="M613 1700 c-49 -20 -39 -74 18 -97 38 -15 50 -35 28 -49 -6 -3 -16
-1 -22 5 -6 6 -22 11 -34 11 -20 0 -22 -3 -13 -19 15 -28 65 -37 96 -16 35 23
30 65 -11 85 -54 27 -57 31 -45 45 8 10 17 10 40 2 34 -13 50 -3 29 18 -19 19
-59 26 -86 15z"/>
<path d="M840 1615 l0 -95 55 0 c42 0 55 3 55 15 0 10 -11 15 -35 15 -31 0
-35 3 -35 25 0 21 5 25 30 25 20 0 30 5 30 15 0 10 -10 15 -30 15 -25 0 -30 4
-30 25 0 22 4 25 35 25 24 0 35 5 35 15 0 12 -13 15 -55 15 l-55 0 0 -95z"/>
<path d="M1070 1616 c0 -89 1 -96 20 -96 16 0 20 7 20 35 0 19 4 35 9 35 5 0
18 -16 30 -35 13 -23 28 -35 42 -35 l21 0 -21 36 -22 37 21 14 c23 16 26 51 6
78 -9 13 -30 20 -70 23 l-56 4 0 -96z m88 55 c23 -14 10 -46 -21 -49 -23 -3
-27 0 -27 21 0 36 19 47 48 28z"/>
<path d="M1365 1628 c-16 -46 -30 -89 -33 -95 -2 -8 4 -13 16 -13 12 0 23 9
27 20 5 15 15 20 42 20 26 0 36 -5 40 -20 5 -19 43 -29 43 -12 0 8 -40 128
-55 165 -4 9 -17 17 -29 17 -19 0 -27 -12 -51 -82z m69 -15 c6 -20 4 -23 -17
-23 -24 0 -25 1 -14 35 11 36 17 34 31 -12z"/>
<path d="M1814 1696 c-67 -29 -64 -137 4 -165 57 -24 122 13 122 68 0 18 -6
21 -45 21 -33 0 -45 -4 -45 -15 0 -9 10 -15 26 -15 16 0 24 -5 22 -12 -3 -7
-20 -13 -38 -13 -27 0 -38 6 -49 26 -13 24 -13 29 2 53 18 26 60 36 72 16 7
-12 45 -14 45 -2 0 16 -17 31 -43 41 -35 13 -35 13 -73 -3z"/>
<path d="M2120 1703 c-38 -14 -60 -47 -60 -88 0 -95 123 -127 166 -42 23 44
11 93 -29 117 -32 20 -50 23 -77 13z m64 -49 c34 -33 9 -94 -38 -94 -31 0 -46
18 -46 55 0 17 5 36 12 43 17 17 54 15 72 -4z"/>
<path d="M2360 1615 l0 -95 50 0 c38 0 50 4 50 15 0 10 -10 15 -30 15 l-30 0
0 80 c0 73 -2 80 -20 80 -19 0 -20 -7 -20 -95z"/>
<path d="M2582 1634 c3 -70 5 -79 30 -97 28 -21 58 -19 93 7 16 11 20 29 23
90 4 71 3 76 -16 76 -19 0 -21 -7 -24 -66 -3 -70 -18 -94 -52 -81 -13 5 -16
21 -16 77 0 64 -2 70 -20 70 -19 0 -21 -5 -18 -76z"/>
<path d="M2990 1695 c0 -9 9 -15 25 -15 25 0 25 -1 25 -80 0 -73 2 -80 20 -80
18 0 20 7 20 80 0 79 0 80 25 80 16 0 25 6 25 15 0 12 -14 15 -70 15 -56 0
-70 -3 -70 -15z"/>
<path d="M3250 1641 c0 -86 19 -115 75 -115 56 0 75 29 75 115 0 62 -2 69 -20
69 -18 0 -20 -7 -20 -63 0 -65 -11 -87 -41 -87 -23 0 -29 20 -29 91 0 52 -2
59 -20 59 -18 0 -20 -7 -20 -69z"/>
<path d="M3530 1615 c0 -88 1 -95 20 -95 16 0 20 7 20 35 0 19 4 35 8 35 5 0
16 -16 25 -35 11 -23 24 -35 37 -35 24 0 24 3 5 41 -15 28 -14 32 4 54 37 48
-1 95 -76 95 l-43 0 0 -95z m84 52 c23 -17 11 -47 -20 -47 -20 0 -24 5 -24 30
0 32 15 38 44 17z"/>
<path d="M3790 1615 c0 -88 1 -95 20 -95 19 0 20 7 20 95 0 88 -1 95 -20 95
-19 0 -20 -7 -20 -95z"/>
<path d="M3960 1695 c0 -10 11 -15 35 -15 19 0 35 -5 35 -10 0 -6 -16 -34 -35
-63 -51 -76 -48 -87 25 -87 47 0 60 3 60 15 0 10 -11 15 -35 15 -19 0 -35 5
-35 10 0 6 16 34 35 63 51 76 48 87 -25 87 -47 0 -60 -3 -60 -15z"/>
<path d="M4210 1615 c0 -88 2 -95 20 -95 16 0 19 8 22 58 l3 57 21 -55 c28
-73 47 -76 69 -11 9 28 20 51 24 51 5 0 8 -21 7 -47 -1 -38 3 -48 17 -51 15
-3 17 7 17 93 0 94 -1 96 -22 93 -17 -2 -28 -18 -47 -66 -13 -34 -27 -59 -31
-55 -4 4 -17 34 -30 66 -18 47 -26 57 -46 57 -24 0 -24 -2 -24 -95z"/>
</g>
</svg>
